<svg xmlns="http://www.w3.org/2000/svg" width="430" height="430" fill="none" viewBox="0 0 430 430"><path fill="#66a1ee" d="M285 100.673v149.654c0 38.786-31.31 70.173-70 70.173s-70-31.387-70-70.173V100.673c0-38.786 31.31-70.173 70-70.173s70 31.387 70 70.173"/><path stroke="#3080e8" stroke-linecap="round" stroke-linejoin="round" stroke-width="3.5" d="M215 350.5v50m35 0h-70m-70-180v25c0 57.99 47.01 105 105 105v0c57.99 0 105-47.01 105-105v-25"/><g opacity=".15" style="mix-blend-mode:multiply"><mask id="AmlQXOk0aUa" width="273" height="256" x="85" y="20" maskUnits="userSpaceOnUse" style="mask-type:alpha"><circle cx="90" cy="25.5" r="5" fill="#D9D9D9"/><circle cx="115" cy="25.5" r="5" fill="#D9D9D9"/><circle cx="140" cy="25.5" r="5" fill="#D9D9D9"/><circle cx="165" cy="25.5" r="5" fill="#D9D9D9"/><circle cx="190" cy="25.5" r="5" fill="#D9D9D9"/><circle cx="215" cy="25.5" r="5" fill="#D9D9D9"/><circle cx="240" cy="25.5" r="5" fill="#D9D9D9"/><circle cx="265" cy="25.5" r="5" fill="#D9D9D9"/><circle cx="290" cy="25.5" r="5" fill="#D9D9D9"/><circle cx="315" cy="25.5" r="5" fill="#D9D9D9"/><circle cx="340" cy="25.5" r="5" fill="#D9D9D9"/><circle cx="90" cy="65.5" r="5" fill="#D9D9D9"/><circle cx="115" cy="65.5" r="5" fill="#D9D9D9"/><circle cx="140" cy="65.5" r="5" fill="#D9D9D9"/><circle cx="165" cy="65.5" r="5" fill="#D9D9D9"/><circle cx="190" cy="65.5" r="5" fill="#D9D9D9"/><circle cx="215" cy="65.5" r="5" fill="#D9D9D9"/><circle cx="240" cy="65.5" r="5" fill="#D9D9D9"/><circle cx="265" cy="65.5" r="5" fill="#D9D9D9"/><circle cx="290" cy="65.5" r="5" fill="#D9D9D9"/><circle cx="315" cy="65.5" r="5" fill="#D9D9D9"/><circle cx="340" cy="65.5" r="5" fill="#D9D9D9"/><circle cx="102.5" cy="45.5" r="5" fill="#D9D9D9"/><circle cx="127.5" cy="45.5" r="5" fill="#D9D9D9"/><circle cx="152.5" cy="45.5" r="5" fill="#D9D9D9"/><circle cx="177.5" cy="45.5" r="5" fill="#D9D9D9"/><circle cx="202.5" cy="45.5" r="5" fill="#D9D9D9"/><circle cx="227.5" cy="45.5" r="5" fill="#D9D9D9"/><circle cx="252.5" cy="45.5" r="5" fill="#D9D9D9"/><circle cx="277.5" cy="45.5" r="5" fill="#D9D9D9"/><circle cx="302.5" cy="45.5" r="5" fill="#D9D9D9"/><circle cx="327.5" cy="45.5" r="5" fill="#D9D9D9"/><circle cx="352.5" cy="45.5" r="5" fill="#D9D9D9"/><circle cx="90" cy="105.5" r="5" fill="#D9D9D9"/><circle cx="115" cy="105.5" r="5" fill="#D9D9D9"/><circle cx="140" cy="105.5" r="5" fill="#D9D9D9"/><circle cx="165" cy="105.5" r="5" fill="#D9D9D9"/><circle cx="190" cy="105.5" r="5" fill="#D9D9D9"/><circle cx="215" cy="105.5" r="5" fill="#D9D9D9"/><circle cx="240" cy="105.5" r="5" fill="#D9D9D9"/><circle cx="265" cy="105.5" r="5" fill="#D9D9D9"/><circle cx="290" cy="105.5" r="5" fill="#D9D9D9"/><circle cx="315" cy="105.5" r="5" fill="#D9D9D9"/><circle cx="340" cy="105.5" r="5" fill="#D9D9D9"/><circle cx="102.5" cy="85.5" r="5" fill="#D9D9D9"/><circle cx="127.5" cy="85.5" r="5" fill="#D9D9D9"/><circle cx="152.5" cy="85.5" r="5" fill="#D9D9D9"/><circle cx="177.5" cy="85.5" r="5" fill="#D9D9D9"/><circle cx="202.5" cy="85.5" r="5" fill="#D9D9D9"/><circle cx="227.5" cy="85.5" r="5" fill="#D9D9D9"/><circle cx="252.5" cy="85.5" r="5" fill="#D9D9D9"/><circle cx="277.5" cy="85.5" r="5" fill="#D9D9D9"/><circle cx="302.5" cy="85.5" r="5" fill="#D9D9D9"/><circle cx="327.5" cy="85.5" r="5" fill="#D9D9D9"/><circle cx="352.5" cy="85.5" r="5" fill="#D9D9D9"/><circle cx="90" cy="145.5" r="5" fill="#D9D9D9"/><circle cx="115" cy="145.5" r="5" fill="#D9D9D9"/><circle cx="140" cy="145.5" r="5" fill="#D9D9D9"/><circle cx="165" cy="145.5" r="5" fill="#D9D9D9"/><circle cx="190" cy="145.5" r="5" fill="#D9D9D9"/><circle cx="215" cy="145.5" r="5" fill="#D9D9D9"/><circle cx="240" cy="145.5" r="5" fill="#D9D9D9"/><circle cx="265" cy="145.5" r="5" fill="#D9D9D9"/><circle cx="290" cy="145.5" r="5" fill="#D9D9D9"/><circle cx="315" cy="145.5" r="5" fill="#D9D9D9"/><circle cx="340" cy="145.5" r="5" fill="#D9D9D9"/><circle cx="102.5" cy="125.5" r="5" fill="#D9D9D9"/><circle cx="127.5" cy="125.5" r="5" fill="#D9D9D9"/><circle cx="152.5" cy="125.5" r="5" fill="#D9D9D9"/><circle cx="177.5" cy="125.5" r="5" fill="#D9D9D9"/><circle cx="202.5" cy="125.5" r="5" fill="#D9D9D9"/><circle cx="227.5" cy="125.5" r="5" fill="#D9D9D9"/><circle cx="252.5" cy="125.5" r="5" fill="#D9D9D9"/><circle cx="277.5" cy="125.5" r="5" fill="#D9D9D9"/><circle cx="302.5" cy="125.5" r="5" fill="#D9D9D9"/><circle cx="327.5" cy="125.5" r="5" fill="#D9D9D9"/><circle cx="352.5" cy="125.5" r="5" fill="#D9D9D9"/><circle cx="90" cy="185.5" r="5" fill="#D9D9D9"/><circle cx="115" cy="185.5" r="5" fill="#D9D9D9"/><circle cx="140" cy="185.5" r="5" fill="#D9D9D9"/><circle cx="165" cy="185.5" r="5" fill="#D9D9D9"/><circle cx="190" cy="185.5" r="5" fill="#D9D9D9"/><circle cx="215" cy="185.5" r="5" fill="#D9D9D9"/><circle cx="240" cy="185.5" r="5" fill="#D9D9D9"/><circle cx="265" cy="185.5" r="5" fill="#D9D9D9"/><circle cx="290" cy="185.5" r="5" fill="#D9D9D9"/><circle cx="315" cy="185.5" r="5" fill="#D9D9D9"/><circle cx="340" cy="185.5" r="5" fill="#D9D9D9"/><circle cx="102.5" cy="165.5" r="5" fill="#D9D9D9"/><circle cx="127.5" cy="165.5" r="5" fill="#D9D9D9"/><circle cx="152.5" cy="165.5" r="5" fill="#D9D9D9"/><circle cx="177.5" cy="165.5" r="5" fill="#D9D9D9"/><circle cx="202.5" cy="165.5" r="5" fill="#D9D9D9"/><circle cx="227.5" cy="165.5" r="5" fill="#D9D9D9"/><circle cx="252.5" cy="165.5" r="5" fill="#D9D9D9"/><circle cx="277.5" cy="165.5" r="5" fill="#D9D9D9"/><circle cx="302.5" cy="165.5" r="5" fill="#D9D9D9"/><circle cx="327.5" cy="165.5" r="5" fill="#D9D9D9"/><circle cx="352.5" cy="165.5" r="5" fill="#D9D9D9"/><circle cx="90" cy="230.5" r="5" fill="#D9D9D9"/><circle cx="115" cy="230.5" r="5" fill="#D9D9D9"/><circle cx="140" cy="230.5" r="5" fill="#D9D9D9"/><circle cx="165" cy="230.5" r="5" fill="#D9D9D9"/><circle cx="190" cy="230.5" r="5" fill="#D9D9D9"/><circle cx="215" cy="230.5" r="5" fill="#D9D9D9"/><circle cx="240" cy="230.5" r="5" fill="#D9D9D9"/><circle cx="265" cy="230.5" r="5" fill="#D9D9D9"/><circle cx="290" cy="230.5" r="5" fill="#D9D9D9"/><circle cx="315" cy="230.5" r="5" fill="#D9D9D9"/><circle cx="340" cy="230.5" r="5" fill="#D9D9D9"/><circle cx="102.5" cy="210.5" r="5" fill="#D9D9D9"/><circle cx="127.5" cy="210.5" r="5" fill="#D9D9D9"/><circle cx="152.5" cy="210.5" r="5" fill="#D9D9D9"/><circle cx="177.5" cy="210.5" r="5" fill="#D9D9D9"/><circle cx="202.5" cy="210.5" r="5" fill="#D9D9D9"/><circle cx="227.5" cy="210.5" r="5" fill="#D9D9D9"/><circle cx="252.5" cy="210.5" r="5" fill="#D9D9D9"/><circle cx="277.5" cy="210.5" r="5" fill="#D9D9D9"/><circle cx="302.5" cy="210.5" r="5" fill="#D9D9D9"/><circle cx="327.5" cy="210.5" r="5" fill="#D9D9D9"/><circle cx="352.5" cy="210.5" r="5" fill="#D9D9D9"/><circle cx="90" cy="270.5" r="5" fill="#D9D9D9"/><circle cx="115" cy="270.5" r="5" fill="#D9D9D9"/><circle cx="140" cy="270.5" r="5" fill="#D9D9D9"/><circle cx="165" cy="270.5" r="5" fill="#D9D9D9"/><circle cx="190" cy="270.5" r="5" fill="#D9D9D9"/><circle cx="215" cy="270.5" r="5" fill="#D9D9D9"/><circle cx="240" cy="270.5" r="5" fill="#D9D9D9"/><circle cx="265" cy="270.5" r="5" fill="#D9D9D9"/><circle cx="290" cy="270.5" r="5" fill="#D9D9D9"/><circle cx="315" cy="270.5" r="5" fill="#D9D9D9"/><circle cx="340" cy="270.5" r="5" fill="#D9D9D9"/><circle cx="102.5" cy="250.5" r="5" fill="#D9D9D9"/><circle cx="127.5" cy="250.5" r="5" fill="#D9D9D9"/><circle cx="152.5" cy="250.5" r="5" fill="#D9D9D9"/><circle cx="177.5" cy="250.5" r="5" fill="#D9D9D9"/><circle cx="202.5" cy="250.5" r="5" fill="#D9D9D9"/><circle cx="227.5" cy="250.5" r="5" fill="#D9D9D9"/><circle cx="252.5" cy="250.5" r="5" fill="#D9D9D9"/><circle cx="277.5" cy="250.5" r="5" fill="#D9D9D9"/><circle cx="302.5" cy="250.5" r="5" fill="#D9D9D9"/><circle cx="327.5" cy="250.5" r="5" fill="#D9D9D9"/><circle cx="352.5" cy="250.5" r="5" fill="#D9D9D9"/></mask><g mask="url(#AmlQXOk0aUa)"><path fill="#66a1ee" d="M285 100.673v149.654c0 38.786-31.31 70.173-70 70.173s-70-31.387-70-70.173V100.673c0-38.786 31.31-70.173 70-70.173s70 31.387 70 70.173"/></g></g><path fill="#1663c7" d="M145 250.5h140c0 38.66-31.34 70-70 70s-70-31.34-70-70"/><path fill="#1663c7" d="M215 320.5v-70h-70c0 38.66 31.34 70 70 70" opacity=".5" style="mix-blend-mode:multiply"/><path fill="#66a1ee" d="M145 100.5c0-38.66 31.34-70 70-70v220h-70z" opacity=".3" style="mix-blend-mode:multiply"/><path fill="#30c9e8" fill-rule="evenodd" d="M252 215.5a3.5 3.5 0 0 1 3.5-3.5H285v7h-29.5a3.5 3.5 0 0 1-3.5-3.5M145 212h29.5a3.5 3.5 0 1 1 0 7H145zm0-30h19.5a3.5 3.5 0 1 1 0 7H145zm116.5 3.5a3.5 3.5 0 0 1 3.5-3.5h20v7h-20a3.5 3.5 0 0 1-3.5-3.5" clip-rule="evenodd"/><path stroke="#3080e8" stroke-miterlimit="16" stroke-width="3.5" d="M285 100.673v149.654c0 38.786-31.31 70.173-70 70.173s-70-31.387-70-70.173V100.673c0-38.786 31.31-70.173 70-70.173s70 31.387 70 70.173Z"/><path stroke="#3080e8" stroke-linecap="round" stroke-width="3.5" d="M145 250.5h140m-70.5 0v68"/></svg>